<svg id="visual" viewBox="0 0 960 540" width="960" height="540" xmlns="http://www.w3.org/2000/svg" xmlns:xlink="http://www.w3.org/1999/xlink" version="1.1">
    <rect x="0" y="0" width="960" height="540" fill="transparent"></rect>
    <defs>
        <linearGradient id="grad1_0" x1="43.8%" y1="0%" x2="100%" y2="100%">
            <stop offset="14.444444444444446%" stop-color="#fbae3c" stop-opacity="1"></stop>
            <stop offset="85.55555555555554%" stop-color="#fbae3c" stop-opacity="1"></stop>
        </linearGradient>
    </defs>
    <defs>
        <linearGradient id="grad1_1" x1="43.8%" y1="0%" x2="100%" y2="100%">
            <stop offset="14.444444444444446%" stop-color="#fbae3c" stop-opacity="1"></stop>
            <stop offset="85.55555555555554%" stop-color="#001220" stop-opacity="1"></stop>
        </linearGradient>
    </defs>
    <defs>
        <linearGradient id="grad2_0" x1="0%" y1="0%" x2="56.3%" y2="100%">
            <stop offset="14.444444444444446%" stop-color="#fbae3c" stop-opacity="1"></stop>
            <stop offset="85.55555555555554%" stop-color="#fbae3c" stop-opacity="1"></stop>
        </linearGradient>
    </defs>
    <defs>
        <linearGradient id="grad2_1" x1="0%" y1="0%" x2="56.3%" y2="100%">
            <stop offset="14.444444444444446%" stop-color="#001220" stop-opacity="1"></stop>
            <stop offset="85.55555555555554%" stop-color="#fbae3c" stop-opacity="1"></stop>
        </linearGradient>
    </defs>
    <g transform="translate(960, 0)">
        <path d="M0 270C-42.8 249.2 -85.6 228.3 -116.5 201.8C-147.4 175.3 -166.3 143.1 -187.9 108.5C-209.5 73.9 -233.8 37 -258 0L0 0Z" fill="#96446e"></path>
        <path d="M0 135C-21.4 124.6 -42.8 114.2 -58.2 100.9C-73.7 87.6 -83.2 71.5 -94 54.3C-104.8 37 -116.9 18.5 -129 0L0 0Z" fill="#fbae3c"></path>
    </g>
    <g transform="translate(0, 540)">
        <path d="M0 -270C46.9 -256.5 93.8 -243.1 124.5 -215.6C155.2 -188.2 169.9 -146.8 187.9 -108.5C206 -70.2 227.5 -35.1 249 0L0 0Z" fill="#96446e"></path>
        <path d="M0 -135C23.4 -128.3 46.9 -121.5 62.2 -107.8C77.6 -94.1 84.9 -73.4 94 -54.3C103 -35.1 113.7 -17.6 124.5 0L0 0Z" fill="#fbae3c"></path>
    </g>
</svg>